<?xml version="1.0" encoding="utf-8"?>
<!-- Generator: Adobe Illustrator 16.0.0, SVG Export Plug-In . SVG Version: 6.00 Build 0)  -->
<!DOCTYPE svg PUBLIC "-//W3C//DTD SVG 1.1 Basic//EN" "http://www.w3.org/Graphics/SVG/1.1/DTD/svg11-basic.dtd">
<svg version="1.1" baseProfile="basic" xmlns="http://www.w3.org/2000/svg" xmlns:xlink="http://www.w3.org/1999/xlink" x="0px"
	 y="0px" width="832.5px" height="214.5px" viewBox="0 0 832.5 214.5" xml:space="preserve">
<style type="text/css">
<![CDATA[
	.st0{fill:#F9F9FA;}
	.st1{fill:#FFFFFF;}
	.st2{fill:none;}
	.st3{fill:#020202;}
]]>
</style>
<g id="Layer_1">
	<g>
		<path class="st0" d="M281.2,158.3c0,3.1,0.4,5.4,1.2,6.8c0.8,1.4,2.1,2.1,3.9,2.1c1.1,0,2.1-0.1,3.1-0.3c1-0.2,2.3-0.6,3.8-1.2
			l1.9,13.5c-1.4,0.7-3.6,1.4-6.5,2.1c-2.9,0.7-5.9,1.1-9,1.1c-5,0-8.9-1.2-11.5-3.5c-2.7-2.3-4-6.2-4-11.6V87.7h17.3V158.3z"/>
		<path class="st0" d="M301.5,95.5c0-2.6,0.9-4.8,2.9-6.6c1.9-1.8,4.5-2.7,7.9-2.7c3.4,0,6.1,0.9,8.2,2.7c2.1,1.8,3.1,4,3.1,6.6
			c0,2.6-1,4.7-3.1,6.4c-2.1,1.7-4.8,2.6-8.2,2.6c-3.4,0-6-0.9-7.9-2.6C302.4,100.2,301.5,98.1,301.5,95.5z M304,114.2h17.3v66.4
			H304V114.2z"/>
		<path class="st0" d="M378.7,180.6v-37.7c0-5.4-0.8-9.3-2.3-11.7c-1.5-2.4-4.2-3.6-7.9-3.6c-3.3,0-6,1-8.3,2.9
			c-2.3,1.9-3.9,4.3-4.8,7.1v43h-17.3v-66.4h13.7l2,8.8h0.5c2-2.8,4.7-5.3,8.1-7.4c3.4-2.1,7.7-3.2,13-3.2c3.3,0,6.2,0.4,8.8,1.3
			c2.6,0.9,4.7,2.3,6.5,4.4c1.8,2,3.1,4.8,4,8.3c0.9,3.5,1.3,7.8,1.3,12.9v41.3H378.7z"/>
		<path class="st0" d="M466.9,157.3c0,3.7,0,7.4,0.1,11.2c0.1,3.7,0.5,7.8,1.2,12.3h-12.3l-2.4-8.6h-0.5c-1.8,3.1-4.3,5.6-7.6,7.5
			c-3.3,1.9-7.2,2.9-11.7,2.9c-8.3,0-14.8-2.7-19.4-8.2c-4.6-5.5-6.9-14.1-6.9-25.8c0-11.3,2.6-20.1,7.7-26.4
			c5.1-6.3,12.7-9.4,22.6-9.4c2.7,0,5,0.2,6.8,0.5c1.8,0.3,3.5,0.8,5.3,1.5V87.7h17.3V157.3z M437.5,167.9c3.4,0,6-0.8,8-2.5
			c1.9-1.6,3.3-4,4.1-7.1v-28.1c-1.2-1-2.6-1.7-4.1-2.2c-1.5-0.5-3.5-0.7-5.8-0.7c-4.9,0-8.5,1.6-11,4.9c-2.4,3.3-3.7,8.9-3.7,16.9
			c0,5.7,1,10.2,3,13.7S433.2,167.9,437.5,167.9z"/>
		<path class="st0" d="M535.1,174.9c-2.7,2.1-6.3,3.9-10.8,5.4c-4.6,1.5-9.4,2.2-14.5,2.2c-10.7,0-18.5-3.1-23.5-9.4
			c-5-6.2-7.4-14.8-7.4-25.7c0-11.7,2.8-20.4,8.4-26.3c5.6-5.8,13.4-8.8,23.5-8.8c3.4,0,6.6,0.4,9.8,1.3c3.2,0.9,6,2.3,8.5,4.4
			c2.5,2,4.5,4.8,6,8.2c1.5,3.5,2.3,7.7,2.3,12.9c0,1.9-0.1,3.8-0.3,6c-0.2,2.1-0.6,4.3-1,6.6h-39.8c0.3,5.6,1.7,9.8,4.3,12.6
			c2.6,2.8,6.8,4.2,12.7,4.2c3.6,0,6.9-0.6,9.8-1.7c2.9-1.1,5.1-2.2,6.6-3.4L535.1,174.9z M510.4,126.2c-4.5,0-7.9,1.4-10,4
			c-2.2,2.7-3.5,6.3-3.9,10.8h24.7c0.4-4.8-0.4-8.5-2.2-11C517.2,127.5,514.3,126.2,510.4,126.2z"/>
		<path class="st0" d="M549.5,87.7h17.3v31.9h0.5c1.9-2.1,4.2-3.8,7.2-5c2.9-1.2,6.2-1.9,9.7-1.9c8,0,14,2.7,18.3,8.2
			c4.2,5.4,6.3,13.7,6.3,24.9c0,11.9-2.9,21-8.8,27.2c-5.9,6.2-14,9.3-24.2,9.3c-5.7,0-10.8-0.5-15.5-1.4c-4.7-0.9-8.2-2-10.6-3.1
			V87.7z M579.1,127.3c-3.2,0-5.8,0.8-7.8,2.5c-2,1.6-3.5,4-4.6,7.1v28.9c1.4,0.7,2.9,1.2,4.6,1.5c1.6,0.3,3.4,0.4,5.2,0.4
			c4.7,0,8.3-1.7,10.7-5.1c2.4-3.4,3.7-8.8,3.7-16.3C590.9,133.6,586.9,127.3,579.1,127.3z"/>
		<path class="st0" d="M657.2,130.4c-2.7-1-5.2-1.5-7.4-1.5c-3.1,0-5.7,0.8-7.8,2.5c-2.1,1.6-3.5,3.7-4.2,6.3v42.9h-17.3v-66.4H634
			l2,8.8h0.5c1.5-3.3,3.5-5.8,6.1-7.6c2.6-1.8,5.6-2.7,9-2.7c2.3,0,4.9,0.5,7.8,1.5L657.2,130.4z"/>
		<path class="st0" d="M664,147.4c0-11.2,2.7-19.9,8.2-26c5.5-6.1,13.2-9.1,23.1-9.1c5.3,0,9.9,0.8,13.8,2.5c3.9,1.7,7.1,4,9.7,7.1
			c2.6,3.1,4.5,6.7,5.8,11.1c1.3,4.3,1.9,9.1,1.9,14.3c0,11.2-2.7,19.9-8.2,26c-5.4,6.1-13.1,9.1-23,9.1c-5.3,0-9.9-0.8-13.8-2.5
			c-3.9-1.7-7.1-4-9.8-7.1c-2.6-3.1-4.6-6.7-5.8-11.1C664.7,157.4,664,152.7,664,147.4z M681.8,147.4c0,2.9,0.3,5.6,0.8,8.1
			c0.5,2.5,1.3,4.6,2.4,6.5c1.1,1.9,2.5,3.3,4.2,4.3c1.7,1,3.8,1.5,6.2,1.5c4.5,0,7.9-1.6,10.1-4.9c2.2-3.3,3.3-8.5,3.3-15.5
			c0-6.1-1-11-3.1-14.8c-2-3.8-5.5-5.6-10.4-5.6c-4.2,0-7.6,1.6-10,4.8C683,135,681.8,140.2,681.8,147.4z"/>
		<path class="st0" d="M766,162.3c0-1.8-0.8-3.2-2.3-4.2c-1.5-1.1-3.4-2-5.6-2.9c-2.2-0.9-4.6-1.8-7.3-2.7c-2.7-0.9-5.1-2.2-7.3-3.8
			c-2.2-1.6-4.1-3.7-5.6-6.2c-1.5-2.5-2.3-5.8-2.3-9.8c0-6.5,1.9-11.5,5.8-15c3.9-3.5,9.5-5.2,16.9-5.2c5,0,9.6,0.5,13.7,1.6
			c4.1,1.1,7.3,2.3,9.6,3.6l-3.9,12.5c-2-0.8-4.6-1.6-7.7-2.5c-3.1-0.9-6.2-1.3-9.4-1.3c-5.1,0-7.7,2-7.7,6c0,1.6,0.8,2.9,2.3,3.8
			c1.5,1,3.4,1.9,5.6,2.7c2.2,0.8,4.6,1.7,7.3,2.7c2.7,1,5.1,2.2,7.3,3.8c2.2,1.5,4.1,3.6,5.6,6c1.5,2.5,2.3,5.7,2.3,9.6
			c0,6.7-2.1,12-6.4,15.9c-4.3,3.8-10.7,5.8-19.3,5.8c-4.7,0-9.1-0.6-13.2-1.8s-7.5-2.6-10-4.2l4.8-12.9c2,1.2,4.7,2.3,8.1,3.4
			c3.4,1.1,6.8,1.7,10.4,1.7c2.6,0,4.6-0.5,6.2-1.5C765.2,166.2,766,164.6,766,162.3z"/>
		<path class="st0" d="M792.5,171.9c0-3.1,1-5.6,2.9-7.4c1.9-1.8,4.5-2.7,7.7-2.7c3.4,0,6,0.9,8,2.7c1.9,1.8,2.9,4.3,2.9,7.4
			c0,3.1-1,5.6-2.9,7.4c-1.9,1.9-4.6,2.8-8,2.8c-3.2,0-5.8-0.9-7.7-2.8C793.5,177.4,792.5,175,792.5,171.9z"/>
	</g>
</g>
<g id="Layer_2">
	<g>
		<path d="M234.1,82c0,17.1-11.3,31-25.3,31c-14,0-25.3-13.9-25.3-31c0-17.1,11.3-31,25.3-31C222.7,51,234.1,64.9,234.1,82"/>
		<path d="M17.6,82C17.6,64.9,29,51,43,51c14,0,25.3,13.9,25.3,31c0,17.1-11.3,31-25.3,31C29,113,17.6,99.1,17.6,82"/>
		<path d="M217.2,107c0,50.3-40.8,91.1-91.1,91.1C75.7,198.1,35,157.3,35,107c0-50.3,40.8-91.1,91.1-91.1
			C176.4,15.9,217.2,56.7,217.2,107"/>
		<path class="st1" d="M192.8,81c0-10.2,7.2-18.4,16-18.4s16,8.2,16,18.4c0,10.2-7.2,18.4-16,18.4S192.8,91.2,192.8,81"/>
		<path class="st1" d="M183.1,73.2c0,16.7-13.5,30.1-30.2,30.1s-30.2-13.5-30.2-30.1c0-16.7,13.5-30.2,30.2-30.2
			S183.1,56.6,183.1,73.2"/>
		<path class="st1" d="M132.2,73.2c0,16.7-13.5,30.1-30.2,30.1c-16.7,0-30.2-13.5-30.2-30.1c0-16.7,13.5-30.2,30.2-30.2
			C118.7,43.1,132.2,56.6,132.2,73.2"/>
		<path class="st1" d="M194.8,126.9c0-29.7-30.1-53.7-67.3-53.7c-37.2,0-67.3,24-67.3,53.7c0,29.7,30.1,53.7,67.3,53.7
			C164.7,180.6,194.8,156.6,194.8,126.9"/>
		<path d="M119,79.4c0,7.6-6.1,13.7-13.7,13.7c-7.6,0-13.7-6.1-13.7-13.7c0-7.5,6.1-13.7,13.7-13.7C112.9,65.7,119,71.8,119,79.4"/>
		<path d="M164.8,79.4c0,7.6-6.1,13.7-13.7,13.7c-7.5,0-13.7-6.1-13.7-13.7c0-7.5,6.1-13.7,13.7-13.7
			C158.7,65.7,164.8,71.8,164.8,79.4"/>
		<path class="st3" d="M88.7,147.3c13,3.2,27.1,6.6,40.6,6.3c13.3-0.3,27-3.3,39.9-6.3c10.2-2.4,5.9-18-4.3-15.7
			c-11.6,2.7-23.7,5.5-35.6,5.8c-12.1,0.2-24.6-2.9-36.3-5.8C82.8,129.1,78.5,144.8,88.7,147.3"/>
		<rect x="15.4" y="16" class="st2" width="224.4" height="187.6"/>
		<path class="st1" d="M26.4,82.1c0-10.2,7.2-18.4,16-18.4s16,8.2,16,18.4s-7.2,18.4-16,18.4S26.4,92.2,26.4,82.1"/>
	</g>
	<g>
	</g>
	<g>
	</g>
	<g>
	</g>
	<g>
	</g>
	<g>
	</g>
	<g>
	</g>
</g>
</svg>
